<svg width="29" height="28" viewBox="0 0 29 28" fill="none" xmlns="http://www.w3.org/2000/svg">
<g id="Group 36" filter="url(#filter0_d_381_4316)">
<path id="Vector" d="M13.5 25C20.1274 25 25.5 19.6274 25.5 13C25.5 6.37258 20.1274 1 13.5 1C6.87259 1 1.5 6.37258 1.5 13C1.5 19.6274 6.87259 25 13.5 25Z" fill="white"/>
<g id="Group">
<g id="Clip path group">
<mask id="mask0_381_4316" style="mask-type:luminance" maskUnits="userSpaceOnUse" x="5" y="4" width="17" height="18">
<g id="SVGID_2_">
<path id="Vector_2" d="M21.0929 11.4032H13.6043V14.5569H17.9148C17.513 16.5605 15.8327 17.7107 13.6043 17.7107C10.9742 17.7107 8.85548 15.5587 8.85548 12.8873C8.85548 10.2159 10.9742 8.06388 13.6043 8.06388C14.7368 8.06388 15.7596 8.47202 16.5632 9.13988L18.9011 6.76528C17.4765 5.50377 15.65 4.72461 13.6043 4.72461C9.14772 4.72461 5.56781 8.36071 5.56781 12.8873C5.56781 17.4138 9.14772 21.0499 13.6043 21.0499C17.6226 21.0499 21.2756 18.0817 21.2756 12.8873C21.2756 12.4049 21.2025 11.8855 21.0929 11.4032Z" fill="white"/>
</g>
</mask>
<g mask="url(#mask0_381_4316)">
<path id="Vector_3" d="M4.83722 17.7112V8.06445L11.0473 12.8878L4.83722 17.7112Z" fill="#FBBC05"/>
</g>
</g>
<g id="Clip path group_2">
<mask id="mask1_381_4316" style="mask-type:luminance" maskUnits="userSpaceOnUse" x="5" y="4" width="17" height="18">
<g id="SVGID_4_">
<path id="Vector_4" d="M21.0929 11.4032H13.6043V14.5569H17.9148C17.513 16.5605 15.8327 17.7107 13.6043 17.7107C10.9742 17.7107 8.85548 15.5587 8.85548 12.8873C8.85548 10.2159 10.9742 8.06388 13.6043 8.06388C14.7368 8.06388 15.7596 8.47202 16.5632 9.13988L18.9011 6.76528C17.4765 5.50377 15.65 4.72461 13.6043 4.72461C9.14772 4.72461 5.56781 8.36071 5.56781 12.8873C5.56781 17.4138 9.14772 21.0499 13.6043 21.0499C17.6226 21.0499 21.2756 18.0817 21.2756 12.8873C21.2756 12.4049 21.2025 11.8855 21.0929 11.4032Z" fill="white"/>
</g>
</mask>
<g mask="url(#mask1_381_4316)">
<path id="Vector_5" d="M4.83722 8.06376L11.0473 12.8871L13.6043 10.6239L22.3715 9.17685V3.98242H4.83722V8.06376Z" fill="#EA4335"/>
</g>
</g>
<g id="Group_2">
<g id="Clip path group_3">
<mask id="mask2_381_4316" style="mask-type:luminance" maskUnits="userSpaceOnUse" x="5" y="4" width="17" height="18">
<g id="SVGID_6_">
<path id="Vector_6" d="M21.0929 11.4032H13.6043V14.5569H17.9148C17.513 16.5605 15.8327 17.7107 13.6043 17.7107C10.9742 17.7107 8.85548 15.5587 8.85548 12.8873C8.85548 10.2159 10.9742 8.06388 13.6043 8.06388C14.7368 8.06388 15.7596 8.47202 16.5632 9.13988L18.9011 6.76528C17.4765 5.50377 15.65 4.72461 13.6043 4.72461C9.14772 4.72461 5.56781 8.36071 5.56781 12.8873C5.56781 17.4138 9.14772 21.0499 13.6043 21.0499C17.6226 21.0499 21.2756 18.0817 21.2756 12.8873C21.2756 12.4049 21.2025 11.8855 21.0929 11.4032Z" fill="white"/>
</g>
</mask>
<g mask="url(#mask2_381_4316)">
<path id="Vector_7" d="M4.83722 17.7105L15.7961 9.17685L18.682 9.54788L22.3715 3.98242V21.7919H4.83722V17.7105Z" fill="#34A853"/>
</g>
</g>
</g>
<g id="Group_3">
<g id="Clip path group_4">
<mask id="mask3_381_4316" style="mask-type:luminance" maskUnits="userSpaceOnUse" x="5" y="4" width="17" height="18">
<g id="SVGID_8_">
<path id="Vector_8" d="M21.0929 11.4032H13.6043V14.5569H17.9148C17.513 16.5605 15.8327 17.7107 13.6043 17.7107C10.9742 17.7107 8.85548 15.5587 8.85548 12.8873C8.85548 10.2159 10.9742 8.06388 13.6043 8.06388C14.7368 8.06388 15.7596 8.47202 16.5632 9.13988L18.9011 6.76528C17.4765 5.50377 15.65 4.72461 13.6043 4.72461C9.14772 4.72461 5.56781 8.36071 5.56781 12.8873C5.56781 17.4138 9.14772 21.0499 13.6043 21.0499C17.6226 21.0499 21.2756 18.0817 21.2756 12.8873C21.2756 12.4049 21.2025 11.8855 21.0929 11.4032Z" fill="white"/>
</g>
</mask>
<g mask="url(#mask3_381_4316)">
<path id="Vector_9" d="M22.3714 21.7926L11.0472 12.8878L9.58606 11.7748L22.3714 8.06445V21.7926Z" fill="#4285F4"/>
</g>
</g>
</g>
</g>
</g>
<defs>
<filter id="filter0_d_381_4316" x="0.5" y="0" width="28" height="28" filterUnits="userSpaceOnUse" color-interpolation-filters="sRGB">
<feFlood flood-opacity="0" result="BackgroundImageFix"/>
<feColorMatrix in="SourceAlpha" type="matrix" values="0 0 0 0 0 0 0 0 0 0 0 0 0 0 0 0 0 0 127 0" result="hardAlpha"/>
<feOffset dx="1" dy="1"/>
<feGaussianBlur stdDeviation="1"/>
<feComposite in2="hardAlpha" operator="out"/>
<feColorMatrix type="matrix" values="0 0 0 0 0 0 0 0 0 0 0 0 0 0 0 0 0 0 0.32 0"/>
<feBlend mode="normal" in2="BackgroundImageFix" result="effect1_dropShadow_381_4316"/>
<feBlend mode="normal" in="SourceGraphic" in2="effect1_dropShadow_381_4316" result="shape"/>
</filter>
</defs>
</svg>
